<?xml version="1.0" encoding="utf-8" standalone="no"?>
<!DOCTYPE svg PUBLIC "-//W3C//DTD SVG 1.1//EN"
  "http://www.w3.org/Graphics/SVG/1.1/DTD/svg11.dtd">
<svg xmlns:xlink="http://www.w3.org/1999/xlink" width="783.787812pt" height="467.192187pt" viewBox="0 0 783.787812 467.192187" xmlns="http://www.w3.org/2000/svg" version="1.1">
 <metadata>
  <rdf:RDF xmlns:dc="http://purl.org/dc/elements/1.1/" xmlns:cc="http://creativecommons.org/ns#" xmlns:rdf="http://www.w3.org/1999/02/22-rdf-syntax-ns#">
   <cc:Work>
    <dc:type rdf:resource="http://purl.org/dc/dcmitype/StillImage"/>
    <dc:date>2026-05-01T21:26:06.924471</dc:date>
    <dc:format>image/svg+xml</dc:format>
    <dc:creator>
     <cc:Agent>
      <dc:title>Matplotlib v3.10.6, https://matplotlib.org/</dc:title>
     </cc:Agent>
    </dc:creator>
   </cc:Work>
  </rdf:RDF>
 </metadata>
 <defs>
  <style type="text/css">*{stroke-linejoin: round; stroke-linecap: butt}</style>
 </defs>
 <g id="figure_1">
  <g id="patch_1">
   <path d="M 0 467.192187 
L 783.787812 467.192187 
L 783.787812 0 
L 0 0 
z
" style="fill: #ffffff"/>
  </g>
  <g id="axes_1">
   <g id="patch_2">
    <path d="M 40.407813 442.5125 
L 776.587812 442.5125 
L 776.587812 30.7925 
L 40.407813 30.7925 
z
" style="fill: #ffffff"/>
   </g>
   <g id="patch_3">
    <path d="M 73.87054 442.5125 
L 311.347959 442.5125 
L 311.347959 418.4955 
L 73.87054 418.4955 
z
" clip-path="url(#pa63f7405d6)" style="fill: #4c78a8"/>
   </g>
   <g id="patch_4">
    <path d="M 505.647666 442.5125 
L 743.125085 442.5125 
L 743.125085 283.82875 
L 505.647666 283.82875 
z
" clip-path="url(#pa63f7405d6)" style="fill: #4c78a8"/>
   </g>
   <g id="patch_5">
    <path d="M 73.87054 418.4955 
L 311.347959 418.4955 
L 311.347959 402.19825 
L 73.87054 402.19825 
z
" clip-path="url(#pa63f7405d6)" style="fill: #72b7b2"/>
   </g>
   <g id="patch_6">
    <path d="M 505.647666 283.82875 
L 743.125085 283.82875 
L 743.125085 213.49325 
L 505.647666 213.49325 
z
" clip-path="url(#pa63f7405d6)" style="fill: #72b7b2"/>
   </g>
   <g id="patch_7">
    <path d="M 73.87054 402.19825 
L 311.347959 402.19825 
L 311.347959 355.87975 
L 73.87054 355.87975 
z
" clip-path="url(#pa63f7405d6)" style="fill: #f58518"/>
   </g>
   <g id="patch_8">
    <path d="M 505.647666 213.49325 
L 743.125085 213.49325 
L 743.125085 178.3255 
L 505.647666 178.3255 
z
" clip-path="url(#pa63f7405d6)" style="fill: #f58518"/>
   </g>
   <g id="patch_9">
    <path d="M 73.87054 355.87975 
L 311.347959 355.87975 
L 311.347959 345.58675 
L 73.87054 345.58675 
z
" clip-path="url(#pa63f7405d6)" style="fill: #54a24b"/>
   </g>
   <g id="patch_10">
    <path d="M 505.647666 178.3255 
L 743.125085 178.3255 
L 743.125085 75.3955 
L 505.647666 75.3955 
z
" clip-path="url(#pa63f7405d6)" style="fill: #54a24b"/>
   </g>
   <g id="matplotlib.axis_1">
    <g id="xtick_1">
     <g id="line2d_1">
      <defs>
       <path id="mdb635be6f2" d="M 0 0 
L 0 3.5 
" style="stroke: #000000; stroke-width: 0.8"/>
      </defs>
      <g>
       <use xlink:href="#mdb635be6f2" x="192.609249" y="442.5125" style="stroke: #000000; stroke-width: 0.8"/>
      </g>
     </g>
     <g id="text_1">
      <!-- 本系统 -->
      <g transform="translate(177.609249 457.50625) scale(0.1 -0.1)">
       <defs>
        <path id="MicrosoftYaHei-672c" d="M 6281 803 
Q 6119 641 5856 366 
Q 4344 1531 3444 3353 
L 3444 878 
L 4875 878 
L 4875 441 
L 3444 441 
L 3444 -841 
L 2956 -841 
L 2956 441 
L 1475 441 
L 1475 878 
L 2956 878 
L 2956 3353 
Q 2159 1766 513 291 
Q 269 522 100 666 
Q 1878 2125 2759 3753 
L 238 3753 
L 238 4216 
L 2956 4216 
L 2956 5341 
L 3444 5341 
L 3444 4216 
L 6163 4216 
L 6163 3753 
L 3622 3753 
Q 4616 1884 6281 803 
z
" transform="scale(0.015625)"/>
        <path id="MicrosoftYaHei-7cfb" d="M 4494 2747 
Q 5294 2103 6131 1334 
Q 5925 1134 5750 953 
Q 5491 1209 5225 1459 
Q 4391 1425 3519 1378 
L 3519 -28 
Q 3519 -741 2769 -741 
Q 2463 -741 1963 -728 
Q 1931 -497 1881 -216 
Q 2406 -272 2688 -272 
Q 3031 -272 3031 66 
L 3031 1353 
Q 2272 1313 1488 1266 
Q 1131 1247 781 1184 
L 575 1722 
Q 988 1797 1356 1966 
Q 2313 2434 3131 2909 
Q 2044 2825 1306 2759 
Q 981 2728 813 2691 
L 613 3216 
Q 913 3291 1175 3434 
Q 1959 3872 2747 4469 
Q 1675 4403 575 4353 
Q 531 4572 463 4791 
Q 3444 4903 5756 5134 
L 5850 4691 
Q 4494 4578 3097 4488 
L 3350 4309 
Q 2369 3653 1538 3203 
Q 2938 3281 3856 3353 
Q 4481 3753 5013 4159 
L 5419 3828 
Q 3850 2709 1775 1734 
Q 3019 1778 4791 1866 
Q 4478 2153 4163 2428 
L 4494 2747 
z
M 4125 697 
L 4444 1034 
Q 5231 509 6175 -222 
L 5806 -628 
Q 4931 97 4125 697 
z
M 1681 1028 
L 2088 709 
Q 1288 -9 406 -678 
Q 256 -497 63 -297 
Q 875 259 1681 1028 
z
" transform="scale(0.015625)"/>
        <path id="MicrosoftYaHei-7edf" d="M 5100 3641 
Q 5625 2934 6175 2047 
Q 5956 1922 5713 1766 
Q 5556 2031 5413 2275 
Q 5122 2256 4813 2241 
L 4813 122 
Q 4813 -259 5094 -259 
L 5400 -259 
Q 5706 -259 5750 53 
Q 5800 428 5813 866 
Q 6019 778 6313 684 
Q 6263 141 6206 -159 
Q 6119 -703 5550 -703 
L 5013 -703 
Q 4331 -703 4331 78 
L 4331 2213 
Q 3981 2194 3606 2169 
Q 3556 809 3256 272 
Q 2900 -416 1925 -866 
Q 1788 -672 1606 -447 
Q 2513 -78 2819 522 
Q 3100 1000 3122 2138 
Q 2994 2128 2863 2122 
Q 2594 2097 2363 2041 
L 2150 2528 
Q 2419 2641 2581 2828 
Q 3050 3388 3463 4047 
L 2100 4047 
L 2100 4491 
L 4094 4491 
Q 3859 4850 3650 5128 
L 4063 5384 
Q 4300 5091 4594 4684 
L 4297 4491 
L 6200 4491 
L 6200 4047 
L 3663 4047 
L 4006 3897 
Q 3488 3197 2988 2609 
Q 4166 2650 5153 2694 
Q 4916 3075 4700 3391 
L 5100 3641 
z
M 894 1534 
Q 1394 1603 2175 1722 
Q 2138 1472 2113 1259 
Q 1331 1153 325 991 
L 225 1441 
Q 616 1841 1153 2744 
Q 503 2700 219 2678 
L 100 3103 
Q 650 3828 1288 5316 
L 1763 5128 
Q 1156 3941 656 3141 
Q 1066 3147 1394 3159 
Q 1581 3494 1788 3884 
L 2256 3678 
Q 1544 2434 894 1534 
z
M 81 222 
Q 1119 422 2225 672 
Q 2200 347 2200 222 
Q 1069 -28 225 -253 
L 81 222 
z
" transform="scale(0.015625)"/>
       </defs>
       <use xlink:href="#MicrosoftYaHei-672c"/>
       <use xlink:href="#MicrosoftYaHei-7cfb" transform="translate(100 0)"/>
       <use xlink:href="#MicrosoftYaHei-7edf" transform="translate(200 0)"/>
      </g>
     </g>
    </g>
    <g id="xtick_2">
     <g id="line2d_2">
      <g>
       <use xlink:href="#mdb635be6f2" x="624.386376" y="442.5125" style="stroke: #000000; stroke-width: 0.8"/>
      </g>
     </g>
     <g id="text_2">
      <!-- 传统方案 -->
      <g transform="translate(604.386376 457.50625) scale(0.1 -0.1)">
       <defs>
        <path id="MicrosoftYaHei-4f20" d="M 2413 684 
L 2681 1053 
Q 3397 666 4056 278 
L 5269 1472 
L 2606 1472 
L 2606 1916 
Q 2731 2306 2847 2691 
L 1869 2691 
L 1869 3128 
L 2975 3128 
Q 3097 3550 3203 3959 
L 2175 3959 
L 2175 4397 
L 3316 4397 
Q 3425 4831 3519 5253 
L 4056 5253 
Q 3959 4838 3847 4397 
L 6050 4397 
L 6050 3959 
L 3734 3959 
Q 3625 3553 3503 3128 
L 6300 3128 
L 6300 2691 
L 3378 2691 
Q 3266 2306 3144 1909 
L 5906 1909 
L 5906 1453 
L 4481 22 
Q 4869 -209 5238 -447 
L 4913 -872 
Q 3594 34 2413 684 
z
M 88 2241 
Q 963 3528 1469 5297 
L 1975 5147 
Q 1741 4422 1475 3791 
L 1475 -803 
L 981 -803 
L 981 2763 
Q 663 2175 306 1691 
Q 213 1959 88 2241 
z
" transform="scale(0.015625)"/>
        <path id="MicrosoftYaHei-65b9" d="M 194 4241 
L 3194 4241 
Q 2878 4841 2700 5116 
L 3188 5347 
Q 3363 5078 3713 4472 
L 3256 4241 
L 6219 4241 
L 6219 3766 
L 2428 3766 
Q 2406 3197 2381 2797 
L 5400 2797 
Q 5325 1441 5238 441 
Q 5169 -691 4138 -691 
Q 3663 -691 2869 -641 
Q 2838 -403 2775 -66 
Q 3569 -172 4063 -172 
Q 4638 -172 4706 509 
Q 4781 1253 4838 2328 
L 2347 2328 
Q 2172 266 438 -872 
Q 269 -672 56 -447 
Q 1706 641 1825 2466 
Q 1869 2959 1897 3766 
L 194 3766 
L 194 4241 
z
" transform="scale(0.015625)"/>
        <path id="MicrosoftYaHei-6848" d="M 419 1822 
Q 1925 1994 2766 2219 
Q 2016 2419 1250 2609 
Q 1506 2884 1738 3153 
L 250 3153 
L 250 3566 
L 2075 3566 
Q 2313 3866 2513 4159 
L 3019 4016 
Q 2850 3791 2659 3566 
L 6150 3566 
L 6150 3153 
L 4806 3153 
Q 4509 2625 4003 2297 
Q 4897 2063 5681 1847 
L 5481 1428 
Q 4491 1741 3466 2025 
Q 2516 1650 600 1409 
Q 525 1609 419 1822 
z
M 6319 -197 
Q 6106 -447 5956 -666 
Q 4306 -172 3425 544 
L 3425 -866 
L 2975 -866 
L 2975 534 
Q 2028 -134 456 -672 
Q 313 -491 94 -247 
Q 1706 156 2647 747 
L 238 747 
L 238 1166 
L 2975 1166 
L 2975 1678 
L 3425 1678 
L 3425 1166 
L 6200 1166 
L 6200 747 
L 3766 747 
Q 4753 81 6319 -197 
z
M 419 4734 
L 3038 4734 
Q 2919 4950 2763 5178 
L 3206 5378 
Q 3409 5059 3591 4734 
L 5975 4734 
L 5975 3791 
L 5500 3791 
L 5500 4322 
L 894 4322 
L 894 3791 
L 419 3791 
L 419 4734 
z
M 1963 2809 
Q 2725 2622 3425 2444 
Q 3975 2688 4284 3153 
L 2294 3153 
Q 2134 2981 1963 2809 
z
" transform="scale(0.015625)"/>
       </defs>
       <use xlink:href="#MicrosoftYaHei-4f20"/>
       <use xlink:href="#MicrosoftYaHei-7edf" transform="translate(100 0)"/>
       <use xlink:href="#MicrosoftYaHei-65b9" transform="translate(200 0)"/>
       <use xlink:href="#MicrosoftYaHei-6848" transform="translate(300 0)"/>
      </g>
     </g>
    </g>
   </g>
   <g id="matplotlib.axis_2">
    <g id="ytick_1">
     <g id="line2d_3">
      <path d="M 40.407813 442.5125 
L 776.587812 442.5125 
" clip-path="url(#pa63f7405d6)" style="fill: none; stroke: #b0b0b0; stroke-opacity: 0.25; stroke-width: 0.8; stroke-linecap: square"/>
     </g>
     <g id="line2d_4">
      <defs>
       <path id="m323b51fce5" d="M 0 0 
L -3.5 0 
" style="stroke: #000000; stroke-width: 0.8"/>
      </defs>
      <g>
       <use xlink:href="#m323b51fce5" x="40.407813" y="442.5125" style="stroke: #000000; stroke-width: 0.8"/>
      </g>
     </g>
     <g id="text_3">
      <!-- 0 -->
      <g transform="translate(27.54375 446.509375) scale(0.1 -0.1)">
       <defs>
        <path id="MicrosoftYaHei-30" d="M 284 2325 
Q 284 3606 709 4264 
Q 1134 4922 1941 4922 
Q 3478 4922 3478 2441 
Q 3478 1216 3045 567 
Q 2613 -81 1831 -81 
Q 1094 -81 689 534 
Q 284 1150 284 2325 
z
M 909 2353 
Q 909 425 1888 425 
Q 2850 425 2850 2384 
Q 2850 4413 1906 4413 
Q 909 4413 909 2353 
z
" transform="scale(0.015625)"/>
       </defs>
       <use xlink:href="#MicrosoftYaHei-30"/>
      </g>
     </g>
    </g>
    <g id="ytick_2">
     <g id="line2d_5">
      <path d="M 40.407813 356.7375 
L 776.587812 356.7375 
" clip-path="url(#pa63f7405d6)" style="fill: none; stroke: #b0b0b0; stroke-opacity: 0.25; stroke-width: 0.8; stroke-linecap: square"/>
     </g>
     <g id="line2d_6">
      <g>
       <use xlink:href="#m323b51fce5" x="40.407813" y="356.7375" style="stroke: #000000; stroke-width: 0.8"/>
      </g>
     </g>
     <g id="text_4">
      <!-- 10 -->
      <g transform="translate(21.679688 360.734375) scale(0.1 -0.1)">
       <defs>
        <path id="MicrosoftYaHei-31" d="M 1781 0 
L 1781 4141 
Q 1638 3997 1295 3819 
Q 953 3641 663 3569 
L 663 4169 
Q 1047 4275 1484 4508 
Q 1922 4741 2156 4947 
L 2388 4947 
L 2388 0 
L 1781 0 
z
" transform="scale(0.015625)"/>
       </defs>
       <use xlink:href="#MicrosoftYaHei-31"/>
       <use xlink:href="#MicrosoftYaHei-30" transform="translate(58.642578 0)"/>
      </g>
     </g>
    </g>
    <g id="ytick_3">
     <g id="line2d_7">
      <path d="M 40.407813 270.9625 
L 776.587812 270.9625 
" clip-path="url(#pa63f7405d6)" style="fill: none; stroke: #b0b0b0; stroke-opacity: 0.25; stroke-width: 0.8; stroke-linecap: square"/>
     </g>
     <g id="line2d_8">
      <g>
       <use xlink:href="#m323b51fce5" x="40.407813" y="270.9625" style="stroke: #000000; stroke-width: 0.8"/>
      </g>
     </g>
     <g id="text_5">
      <!-- 20 -->
      <g transform="translate(21.679688 274.959375) scale(0.1 -0.1)">
       <defs>
        <path id="MicrosoftYaHei-32" d="M 2666 3572 
Q 2666 3963 2419 4186 
Q 2172 4409 1747 4409 
Q 1447 4409 1140 4256 
Q 834 4103 569 3819 
L 569 4413 
Q 806 4659 1107 4790 
Q 1409 4922 1816 4922 
Q 2472 4922 2872 4570 
Q 3272 4219 3272 3619 
Q 3272 3084 3026 2693 
Q 2781 2303 2188 1894 
Q 1581 1475 1376 1294 
Q 1172 1113 1090 947 
Q 1009 781 1009 544 
L 3416 544 
L 3416 0 
L 372 0 
L 372 241 
Q 372 659 486 951 
Q 600 1244 862 1520 
Q 1125 1797 1681 2184 
Q 2250 2584 2458 2886 
Q 2666 3188 2666 3572 
z
" transform="scale(0.015625)"/>
       </defs>
       <use xlink:href="#MicrosoftYaHei-32"/>
       <use xlink:href="#MicrosoftYaHei-30" transform="translate(58.642578 0)"/>
      </g>
     </g>
    </g>
    <g id="ytick_4">
     <g id="line2d_9">
      <path d="M 40.407813 185.1875 
L 776.587812 185.1875 
" clip-path="url(#pa63f7405d6)" style="fill: none; stroke: #b0b0b0; stroke-opacity: 0.25; stroke-width: 0.8; stroke-linecap: square"/>
     </g>
     <g id="line2d_10">
      <g>
       <use xlink:href="#m323b51fce5" x="40.407813" y="185.1875" style="stroke: #000000; stroke-width: 0.8"/>
      </g>
     </g>
     <g id="text_6">
      <!-- 30 -->
      <g transform="translate(21.679688 189.184375) scale(0.1 -0.1)">
       <defs>
        <path id="MicrosoftYaHei-33" d="M 447 809 
Q 944 425 1569 425 
Q 2069 425 2361 670 
Q 2653 916 2653 1328 
Q 2653 2247 1338 2247 
L 934 2247 
L 934 2753 
L 1319 2753 
Q 2484 2753 2484 3616 
Q 2484 4413 1594 4413 
Q 1084 4413 634 4069 
L 634 4647 
Q 1109 4922 1744 4922 
Q 2363 4922 2738 4598 
Q 3113 4275 3113 3759 
Q 3113 2809 2144 2538 
L 2144 2525 
Q 2669 2469 2973 2155 
Q 3278 1841 3278 1372 
Q 3278 719 2808 319 
Q 2338 -81 1556 -81 
Q 869 -81 447 175 
L 447 809 
z
" transform="scale(0.015625)"/>
       </defs>
       <use xlink:href="#MicrosoftYaHei-33"/>
       <use xlink:href="#MicrosoftYaHei-30" transform="translate(58.642578 0)"/>
      </g>
     </g>
    </g>
    <g id="ytick_5">
     <g id="line2d_11">
      <path d="M 40.407813 99.4125 
L 776.587812 99.4125 
" clip-path="url(#pa63f7405d6)" style="fill: none; stroke: #b0b0b0; stroke-opacity: 0.25; stroke-width: 0.8; stroke-linecap: square"/>
     </g>
     <g id="line2d_12">
      <g>
       <use xlink:href="#m323b51fce5" x="40.407813" y="99.4125" style="stroke: #000000; stroke-width: 0.8"/>
      </g>
     </g>
     <g id="text_7">
      <!-- 40 -->
      <g transform="translate(21.679688 103.409375) scale(0.1 -0.1)">
       <defs>
        <path id="MicrosoftYaHei-34" d="M 2906 4841 
L 2906 1644 
L 3631 1644 
L 3631 1138 
L 2906 1138 
L 2906 0 
L 2313 0 
L 2313 1138 
L 53 1138 
L 53 1616 
Q 656 2294 1265 3178 
Q 1875 4063 2272 4841 
L 2906 4841 
z
M 741 1644 
L 2313 1644 
L 2313 3950 
Q 1988 3366 1616 2817 
Q 1244 2269 741 1644 
z
" transform="scale(0.015625)"/>
       </defs>
       <use xlink:href="#MicrosoftYaHei-34"/>
       <use xlink:href="#MicrosoftYaHei-30" transform="translate(58.642578 0)"/>
      </g>
     </g>
    </g>
    <g id="text_8">
     <!-- 耗时（秒） -->
     <g transform="translate(15.19375 261.6525) rotate(-90) scale(0.1 -0.1)">
      <defs>
       <path id="MicrosoftYaHei-8017" d="M 2506 1622 
L 3913 1753 
L 3913 2878 
L 2738 2772 
L 2706 3197 
L 3913 3303 
L 3913 4459 
Q 3381 4403 2794 4353 
Q 2769 4584 2700 4809 
Q 4225 4916 5706 5172 
L 5819 4697 
Q 5188 4603 4381 4509 
L 4381 3347 
L 5825 3478 
L 5850 3053 
L 4381 2916 
L 4381 1797 
L 6150 1966 
L 6175 1541 
L 4381 1366 
L 4381 128 
Q 4381 -241 4706 -241 
L 5400 -241 
Q 5688 -241 5750 147 
Q 5813 566 5844 991 
Q 6094 866 6319 791 
Q 6250 291 6194 -28 
Q 6094 -691 5456 -691 
L 4588 -691 
Q 3913 -691 3913 72 
L 3913 1322 
L 2538 1197 
L 2506 1622 
z
M 88 191 
Q 769 1072 1088 2022 
L 138 2022 
L 138 2422 
L 1250 2422 
L 1250 3028 
L 363 3028 
L 363 3428 
L 1250 3428 
L 1250 4016 
L 231 4016 
L 231 4416 
L 1250 4416 
L 1250 5303 
L 1675 5303 
L 1675 4416 
L 2631 4416 
L 2631 4016 
L 1675 4016 
L 1675 3428 
L 2519 3428 
L 2519 3028 
L 1675 3028 
L 1675 2422 
L 2700 2422 
L 2700 2022 
L 1675 2022 
L 1675 1334 
L 1894 1547 
Q 2381 1078 2806 622 
L 2463 316 
Q 2125 747 1675 1203 
L 1675 -841 
L 1250 -841 
L 1250 1491 
Q 869 434 281 -297 
Q 188 -16 88 191 
z
" transform="scale(0.015625)"/>
       <path id="MicrosoftYaHei-65f6" d="M 344 4728 
L 2500 4728 
L 2500 -366 
L 2006 -366 
L 2006 153 
L 838 153 
L 838 -441 
L 344 -441 
L 344 4728 
z
M 2706 3941 
L 4925 3941 
L 4925 5322 
L 5425 5322 
L 5425 3941 
L 6313 3941 
L 6313 3478 
L 5425 3478 
L 5425 116 
Q 5425 -722 4625 -722 
Q 4263 -722 3563 -703 
Q 3531 -478 3463 -178 
Q 4119 -228 4488 -228 
Q 4925 -228 4925 216 
L 4925 3478 
L 2706 3478 
L 2706 3941 
z
M 838 616 
L 2006 616 
L 2006 2234 
L 838 2234 
L 838 616 
z
M 2006 4266 
L 838 4266 
L 838 2684 
L 2006 2684 
L 2006 4266 
z
M 3406 2878 
Q 3906 1966 4163 1422 
Q 4000 1347 3663 1172 
Q 3419 1766 2963 2653 
L 3406 2878 
z
" transform="scale(0.015625)"/>
       <path id="MicrosoftYaHei-ff08" d="M 5288 -1100 
Q 4172 119 4172 1850 
Q 4172 3603 5288 4838 
L 5825 4838 
Q 4716 3572 4716 1856 
Q 4716 166 5819 -1100 
L 5288 -1100 
z
" transform="scale(0.015625)"/>
       <path id="MicrosoftYaHei-79d2" d="M 44 903 
Q 616 1744 978 3059 
L 113 3059 
L 113 3484 
L 1100 3484 
L 1100 4456 
Q 703 4400 281 4353 
Q 231 4566 150 4784 
Q 1244 4878 2344 5128 
L 2481 4691 
Q 2041 4603 1563 4525 
L 1563 3484 
L 2438 3484 
L 2438 3059 
L 1563 3059 
L 1563 2178 
L 1844 2422 
Q 2094 2166 2575 1603 
L 2200 1297 
Q 1809 1794 1563 2088 
L 1563 -822 
L 1100 -822 
L 1100 2175 
Q 766 1059 256 359 
Q 156 628 44 903 
z
M 1944 -316 
Q 4481 253 5594 2284 
L 6025 2003 
Q 4756 -141 2206 -766 
Q 2088 -534 1944 -316 
z
M 4025 5278 
L 4513 5278 
L 4513 1328 
L 4025 1328 
L 4025 5278 
z
M 3075 4266 
L 3544 4141 
Q 3275 3078 2906 1997 
Q 2681 2097 2425 2172 
Q 2850 3247 3075 4266 
z
M 4950 4141 
L 5375 4341 
Q 5856 3566 6281 2722 
L 5831 2484 
Q 5444 3328 4950 4141 
z
" transform="scale(0.015625)"/>
       <path id="MicrosoftYaHei-ff09" d="M 1113 -1100 
L 575 -1100 
Q 1684 163 1684 1888 
Q 1684 3581 581 4838 
L 1113 4838 
Q 2222 3628 2222 1888 
Q 2222 128 1113 -1100 
z
" transform="scale(0.015625)"/>
      </defs>
      <use xlink:href="#MicrosoftYaHei-8017"/>
      <use xlink:href="#MicrosoftYaHei-65f6" transform="translate(100 0)"/>
      <use xlink:href="#MicrosoftYaHei-ff08" transform="translate(200 0)"/>
      <use xlink:href="#MicrosoftYaHei-79d2" transform="translate(300 0)"/>
      <use xlink:href="#MicrosoftYaHei-ff09" transform="translate(400 0)"/>
     </g>
    </g>
   </g>
   <g id="patch_11">
    <path d="M 40.407813 442.5125 
L 40.407813 30.7925 
" style="fill: none; stroke: #000000; stroke-width: 0.8; stroke-linejoin: miter; stroke-linecap: square"/>
   </g>
   <g id="patch_12">
    <path d="M 776.587812 442.5125 
L 776.587812 30.7925 
" style="fill: none; stroke: #000000; stroke-width: 0.8; stroke-linejoin: miter; stroke-linecap: square"/>
   </g>
   <g id="patch_13">
    <path d="M 40.407813 442.5125 
L 776.587812 442.5125 
" style="fill: none; stroke: #000000; stroke-width: 0.8; stroke-linejoin: miter; stroke-linecap: square"/>
   </g>
   <g id="patch_14">
    <path d="M 40.407813 30.7925 
L 776.587812 30.7925 
" style="fill: none; stroke: #000000; stroke-width: 0.8; stroke-linejoin: miter; stroke-linecap: square"/>
   </g>
   <g id="text_9">
    <!-- 11.3s -->
    <g transform="translate(176.832999 334.436) scale(0.12 -0.12)">
     <defs>
      <path id="MicrosoftYaHei-Bold-31" d="M 2716 4947 
L 2716 0 
L 1700 0 
L 1700 3809 
Q 1513 3647 1188 3517 
Q 863 3388 591 3356 
L 591 4222 
Q 1447 4472 2072 4947 
L 2716 4947 
z
" transform="scale(0.015625)"/>
      <path id="MicrosoftYaHei-Bold-2e" d="M 313 453 
Q 313 688 491 838 
Q 669 988 916 988 
Q 1166 988 1337 834 
Q 1509 681 1509 453 
Q 1509 213 1337 64 
Q 1166 -84 903 -84 
Q 659 -84 486 69 
Q 313 222 313 453 
z
" transform="scale(0.015625)"/>
      <path id="MicrosoftYaHei-Bold-33" d="M 494 1053 
Q 978 691 1625 691 
Q 2034 691 2275 872 
Q 2516 1053 2516 1388 
Q 2516 1731 2230 1912 
Q 1944 2094 1428 2094 
L 997 2094 
L 997 2872 
L 1394 2872 
Q 2369 2872 2369 3528 
Q 2369 4147 1622 4147 
Q 1134 4147 675 3828 
L 675 4663 
Q 1175 4922 1853 4922 
Q 2541 4922 2969 4605 
Q 3397 4288 3397 3725 
Q 3397 2775 2434 2531 
L 2434 2516 
Q 2941 2459 3244 2145 
Q 3547 1831 3547 1381 
Q 3547 691 3042 303 
Q 2538 -84 1697 -84 
Q 950 -84 494 163 
L 494 1053 
z
" transform="scale(0.015625)"/>
      <path id="MicrosoftYaHei-Bold-73" d="M 369 928 
Q 888 613 1384 613 
Q 2009 613 2009 947 
Q 2009 1184 1494 1344 
Q 850 1544 609 1789 
Q 369 2034 369 2453 
Q 369 2963 781 3252 
Q 1194 3541 1863 3541 
Q 2338 3541 2778 3400 
L 2778 2606 
Q 2375 2844 1891 2844 
Q 1650 2844 1503 2758 
Q 1356 2672 1356 2531 
Q 1356 2294 1794 2147 
Q 2263 1991 2498 1862 
Q 2734 1734 2857 1525 
Q 2981 1316 2981 1041 
Q 2981 506 2553 211 
Q 2125 -84 1409 -84 
Q 847 -84 369 94 
L 369 928 
z
" transform="scale(0.015625)"/>
     </defs>
     <use xlink:href="#MicrosoftYaHei-Bold-31"/>
     <use xlink:href="#MicrosoftYaHei-Bold-31" transform="translate(61.669922 0)"/>
     <use xlink:href="#MicrosoftYaHei-Bold-2e" transform="translate(123.339844 0)"/>
     <use xlink:href="#MicrosoftYaHei-Bold-33" transform="translate(151.904297 0)"/>
     <use xlink:href="#MicrosoftYaHei-Bold-73" transform="translate(213.574219 0)"/>
    </g>
   </g>
   <g id="text_10">
    <!-- 42.8s -->
    <g transform="translate(608.610126 64.24475) scale(0.12 -0.12)">
     <defs>
      <path id="MicrosoftYaHei-Bold-34" d="M 3184 4841 
L 3184 1766 
L 3869 1766 
L 3869 1031 
L 3184 1031 
L 3184 0 
L 2266 0 
L 2266 1031 
L 103 1031 
L 103 1772 
Q 775 2522 1362 3359 
Q 1950 4197 2250 4841 
L 3184 4841 
z
M 997 1766 
L 2266 1766 
L 2266 3541 
Q 2116 3259 1836 2859 
Q 1556 2459 997 1766 
z
" transform="scale(0.015625)"/>
      <path id="MicrosoftYaHei-Bold-32" d="M 1500 841 
L 3553 841 
L 3553 0 
L 334 0 
L 334 359 
Q 334 738 473 1050 
Q 613 1363 856 1633 
Q 1100 1903 1613 2266 
Q 2081 2616 2268 2886 
Q 2456 3156 2456 3459 
Q 2456 4113 1744 4113 
Q 1119 4113 550 3613 
L 550 4513 
Q 1184 4922 1975 4922 
Q 2700 4922 3122 4551 
Q 3544 4181 3544 3531 
Q 3544 3169 3422 2876 
Q 3300 2584 3069 2328 
Q 2838 2072 2328 1713 
Q 1838 1363 1669 1172 
Q 1500 981 1500 841 
z
" transform="scale(0.015625)"/>
      <path id="MicrosoftYaHei-Bold-38" d="M 269 1303 
Q 269 1725 512 2053 
Q 756 2381 1219 2534 
Q 850 2719 648 3003 
Q 447 3288 447 3634 
Q 447 3997 645 4292 
Q 844 4588 1200 4755 
Q 1556 4922 1997 4922 
Q 2441 4922 2800 4758 
Q 3159 4594 3359 4298 
Q 3559 4003 3559 3647 
Q 3559 3309 3339 3018 
Q 3119 2728 2747 2559 
Q 3200 2403 3453 2076 
Q 3706 1750 3706 1313 
Q 3706 697 3228 309 
Q 2750 -78 1988 -78 
Q 1225 -78 747 309 
Q 269 697 269 1303 
z
M 1278 1394 
Q 1278 1056 1472 853 
Q 1666 650 1991 650 
Q 2303 650 2503 853 
Q 2703 1056 2703 1394 
Q 2703 1709 2500 1920 
Q 2297 2131 1991 2131 
Q 1675 2131 1476 1920 
Q 1278 1709 1278 1394 
z
M 1428 3531 
Q 1428 3266 1592 3077 
Q 1756 2888 2006 2888 
Q 2247 2888 2415 3072 
Q 2584 3256 2584 3531 
Q 2584 3806 2420 3997 
Q 2256 4188 2006 4188 
Q 1750 4188 1589 3997 
Q 1428 3806 1428 3531 
z
" transform="scale(0.015625)"/>
     </defs>
     <use xlink:href="#MicrosoftYaHei-Bold-34"/>
     <use xlink:href="#MicrosoftYaHei-Bold-32" transform="translate(61.669922 0)"/>
     <use xlink:href="#MicrosoftYaHei-Bold-2e" transform="translate(123.339844 0)"/>
     <use xlink:href="#MicrosoftYaHei-Bold-38" transform="translate(151.904297 0)"/>
     <use xlink:href="#MicrosoftYaHei-Bold-73" transform="translate(213.574219 0)"/>
    </g>
   </g>
   <g id="text_11">
    <!-- 节省时间：74% -->
    <g style="fill: #006400" transform="translate(676.199631 214.89996) scale(0.11 -0.11)">
     <defs>
      <path id="MicrosoftYaHei-8282" d="M 438 2928 
L 5600 2928 
Q 5538 1622 5475 922 
Q 5406 3 4400 3 
Q 3806 3 3425 41 
Q 3388 341 3325 584 
Q 3869 497 4338 497 
Q 4944 497 4981 1084 
Q 5038 1553 5075 2472 
L 2569 2472 
L 2569 -834 
L 2050 -834 
L 2050 2472 
L 438 2472 
L 438 2928 
z
M 125 4478 
L 1856 4478 
L 1856 5303 
L 2356 5303 
L 2356 4478 
L 4031 4478 
L 4031 5303 
L 4531 5303 
L 4531 4478 
L 6263 4478 
L 6263 4022 
L 4531 4022 
L 4531 3322 
L 4031 3322 
L 4031 4022 
L 2356 4022 
L 2356 3328 
L 1856 3328 
L 1856 4022 
L 125 4022 
L 125 4478 
z
" transform="scale(0.015625)"/>
      <path id="MicrosoftYaHei-7701" d="M 106 2684 
Q 3094 3278 4838 3978 
L 5088 3559 
Q 3838 3091 1928 2628 
L 5588 2628 
L 5588 -791 
L 5125 -791 
L 5125 -516 
L 1613 -516 
L 1613 -803 
L 1150 -803 
L 1150 2444 
Q 728 2350 275 2253 
Q 206 2459 106 2684 
z
M 1613 -91 
L 5125 -91 
L 5125 403 
L 1613 403 
L 1613 -91 
z
M 5125 2203 
L 1613 2203 
L 1613 1716 
L 5125 1716 
L 5125 2203 
z
M 1613 816 
L 5125 816 
L 5125 1303 
L 1613 1303 
L 1613 816 
z
M 2031 4934 
L 2375 4566 
Q 1481 3866 563 3247 
Q 425 3441 269 3653 
Q 1238 4272 2031 4934 
z
M 4206 4572 
L 4463 4941 
Q 5394 4434 6306 3866 
L 6006 3428 
Q 5175 4009 4206 4572 
z
M 2956 5303 
L 3431 5303 
L 3431 3591 
L 2956 3591 
L 2956 5303 
z
" transform="scale(0.015625)"/>
      <path id="MicrosoftYaHei-95f4" d="M 1863 3647 
L 4513 3647 
L 4513 553 
L 2313 553 
L 2313 166 
L 1863 166 
L 1863 3647 
z
M 2388 4453 
L 2388 4922 
L 6013 4922 
L 6013 -28 
Q 6013 -816 5119 -816 
Q 4756 -816 4169 -803 
Q 4144 -616 4069 -297 
Q 4588 -334 5056 -334 
Q 5525 -334 5525 122 
L 5525 4453 
L 2388 4453 
z
M 419 4084 
L 906 4084 
L 906 -816 
L 419 -816 
L 419 4084 
z
M 2313 997 
L 4063 997 
L 4063 1884 
L 2313 1884 
L 2313 997 
z
M 4063 3203 
L 2313 3203 
L 2313 2328 
L 4063 2328 
L 4063 3203 
z
M 744 5003 
L 1100 5322 
Q 1575 4872 1981 4447 
L 1575 4091 
Q 1194 4541 744 5003 
z
" transform="scale(0.015625)"/>
      <path id="MicrosoftYaHei-ff1a" d="M 1606 3531 
Q 1772 3531 1890 3415 
Q 2009 3300 2009 3138 
Q 2009 2975 1893 2858 
Q 1778 2741 1606 2741 
Q 1434 2741 1318 2858 
Q 1203 2975 1203 3138 
Q 1203 3300 1322 3415 
Q 1441 3531 1606 3531 
z
M 1606 716 
Q 1772 716 1890 600 
Q 2009 484 2009 319 
Q 2009 150 1890 36 
Q 1772 -78 1606 -78 
Q 1441 -78 1322 36 
Q 1203 150 1203 319 
Q 1203 484 1322 600 
Q 1441 716 1606 716 
z
" transform="scale(0.015625)"/>
      <path id="MicrosoftYaHei-37" d="M 3422 4463 
Q 2659 3131 2223 1998 
Q 1788 866 1684 0 
L 1047 0 
Q 1163 853 1594 1947 
Q 2025 3041 2747 4300 
L 347 4300 
L 347 4841 
L 3422 4841 
L 3422 4463 
z
" transform="scale(0.015625)"/>
      <path id="MicrosoftYaHei-25" d="M 272 3619 
Q 272 4213 589 4563 
Q 906 4913 1444 4913 
Q 1959 4913 2248 4591 
Q 2538 4269 2538 3694 
Q 2538 3122 2219 2765 
Q 1900 2409 1372 2409 
Q 872 2409 572 2740 
Q 272 3072 272 3619 
z
M 753 3650 
Q 753 3247 928 3028 
Q 1103 2809 1406 2809 
Q 1719 2809 1889 3036 
Q 2059 3263 2059 3675 
Q 2059 4078 1892 4298 
Q 1725 4519 1422 4519 
Q 1113 4519 933 4289 
Q 753 4059 753 3650 
z
M 4647 4841 
L 1538 -31 
L 1016 -31 
L 4125 4841 
L 4647 4841 
z
M 3172 1134 
Q 3172 1728 3489 2083 
Q 3806 2438 4341 2438 
Q 4853 2438 5143 2114 
Q 5434 1791 5434 1203 
Q 5434 634 5112 279 
Q 4791 -75 4272 -75 
Q 3769 -75 3470 261 
Q 3172 597 3172 1134 
z
M 3650 1163 
Q 3650 769 3825 548 
Q 4000 328 4303 328 
Q 4616 328 4786 556 
Q 4956 784 4956 1194 
Q 4956 1600 4786 1815 
Q 4616 2031 4319 2031 
Q 4000 2031 3825 1801 
Q 3650 1572 3650 1163 
z
" transform="scale(0.015625)"/>
     </defs>
     <use xlink:href="#MicrosoftYaHei-8282"/>
     <use xlink:href="#MicrosoftYaHei-7701" transform="translate(100 0)"/>
     <use xlink:href="#MicrosoftYaHei-65f6" transform="translate(200 0)"/>
     <use xlink:href="#MicrosoftYaHei-95f4" transform="translate(300 0)"/>
     <use xlink:href="#MicrosoftYaHei-ff1a" transform="translate(400 0)"/>
     <use xlink:href="#MicrosoftYaHei-37" transform="translate(500 0)"/>
     <use xlink:href="#MicrosoftYaHei-34" transform="translate(558.642578 0)"/>
     <use xlink:href="#MicrosoftYaHei-25" transform="translate(617.285156 0)"/>
    </g>
   </g>
   <g id="text_12">
    <!-- [自动化] -->
    <g transform="translate(149.431537 374.664475) scale(0.11 -0.11)">
     <defs>
      <path id="MicrosoftYaHei-5b" d="M 1959 -1100 
L 681 -1100 
L 681 4841 
L 1959 4841 
L 1959 4406 
L 1219 4406 
L 1219 -669 
L 1959 -669 
L 1959 -1100 
z
" transform="scale(0.015625)"/>
      <path id="MicrosoftYaHei-81ea" d="M 775 4466 
L 2391 4466 
Q 2525 4828 2688 5328 
L 3219 5166 
Q 3059 4778 2909 4466 
L 5625 4466 
L 5625 -822 
L 5125 -822 
L 5125 -447 
L 1275 -447 
L 1275 -822 
L 775 -822 
L 775 4466 
z
M 1275 3 
L 5125 3 
L 5125 1053 
L 1275 1053 
L 1275 3 
z
M 1275 1497 
L 5125 1497 
L 5125 2534 
L 1275 2534 
L 1275 1497 
z
M 5125 4016 
L 1275 4016 
L 1275 2978 
L 5125 2978 
L 5125 4016 
z
" transform="scale(0.015625)"/>
      <path id="MicrosoftYaHei-52a8" d="M 2975 4022 
L 3906 4022 
Q 3916 4650 3913 5309 
L 4425 5309 
Q 4422 4656 4409 4022 
L 6094 4022 
Q 6050 1659 5969 216 
Q 5900 -666 5150 -678 
Q 4763 -678 4306 -659 
Q 4263 -397 4206 -109 
Q 4638 -166 4994 -172 
Q 5456 -172 5475 347 
Q 5569 1897 5588 3547 
L 4400 3547 
Q 4394 3278 4388 3016 
Q 4356 553 2900 -872 
Q 2725 -659 2525 -447 
Q 3831 716 3888 3028 
Q 3894 3284 3900 3547 
L 2975 3547 
L 2975 4022 
z
M 2338 1866 
Q 2731 1016 3063 178 
Q 2788 59 2594 -28 
Q 2550 91 2506 209 
Q 1316 97 338 -16 
L 119 491 
Q 394 647 563 997 
Q 869 1613 1200 2559 
L 144 2559 
L 144 3022 
L 3163 3022 
L 3163 2559 
L 1725 2559 
Q 1191 1228 800 491 
Q 1519 544 2347 631 
Q 2138 1163 1906 1672 
L 2338 1866 
z
M 406 4778 
L 2913 4778 
L 2913 4316 
L 406 4316 
L 406 4778 
z
" transform="scale(0.015625)"/>
      <path id="MicrosoftYaHei-5316" d="M 1844 1453 
Q 2663 1834 3375 2331 
L 3375 5197 
L 3913 5197 
L 3913 2734 
Q 4869 3506 5613 4516 
L 6069 4184 
Q 5159 2975 3913 2069 
L 3913 303 
Q 3913 -122 4363 -122 
L 5156 -122 
Q 5581 -122 5650 284 
Q 5738 709 5763 1266 
Q 6025 1166 6313 1084 
Q 6263 559 6181 122 
Q 6063 -597 5281 -597 
L 4225 -597 
Q 3375 -597 3375 241 
L 3375 1703 
Q 2791 1328 2144 1016 
Q 2013 1222 1844 1453 
z
M 88 2222 
Q 1175 3666 1688 5291 
L 2231 5134 
Q 1934 4359 1588 3675 
L 1588 -797 
L 1063 -797 
L 1063 2734 
Q 716 2172 325 1678 
Q 219 1947 88 2222 
z
" transform="scale(0.015625)"/>
      <path id="MicrosoftYaHei-5d" d="M 1466 -1100 
L 184 -1100 
L 184 -669 
L 928 -669 
L 928 4406 
L 184 4406 
L 184 4841 
L 1466 4841 
L 1466 -1100 
z
" transform="scale(0.015625)"/>
     </defs>
     <use xlink:href="#MicrosoftYaHei-5b"/>
     <use xlink:href="#MicrosoftYaHei-81ea" transform="translate(33.398438 0)"/>
     <use xlink:href="#MicrosoftYaHei-52a8" transform="translate(133.398438 0)"/>
     <use xlink:href="#MicrosoftYaHei-5316" transform="translate(233.398438 0)"/>
     <use xlink:href="#MicrosoftYaHei-5d" transform="translate(333.398438 0)"/>
    </g>
   </g>
   <g id="text_13">
    <!-- [人工环节较多] -->
    <g transform="translate(555.302035 185.5306) scale(0.11 -0.11)">
     <defs>
      <path id="MicrosoftYaHei-4eba" d="M 100 -303 
Q 2825 1272 2981 5222 
L 3531 5222 
Q 3497 4553 3400 3947 
Q 4175 822 6313 -166 
Q 6050 -453 5850 -709 
Q 3994 341 3203 3006 
Q 2519 431 494 -778 
Q 325 -547 100 -303 
z
" transform="scale(0.015625)"/>
      <path id="MicrosoftYaHei-5de5" d="M 181 97 
L 2919 97 
L 2919 4266 
L 538 4266 
L 538 4766 
L 5863 4766 
L 5863 4266 
L 3469 4266 
L 3469 97 
L 6213 97 
L 6213 -391 
L 181 -391 
L 181 97 
z
" transform="scale(0.015625)"/>
      <path id="MicrosoftYaHei-73af" d="M 2606 4447 
L 2606 4916 
L 6050 4916 
L 6050 4447 
L 4441 4447 
Q 4228 3716 3959 3053 
L 4369 3053 
L 4369 -816 
L 3875 -816 
L 3875 2850 
Q 3247 1381 2338 259 
Q 2175 422 1944 566 
Q 3284 2200 3925 4447 
L 2606 4447 
z
M 94 922 
Q 544 1031 1050 1166 
L 1050 2641 
L 213 2641 
L 213 3091 
L 1050 3091 
L 1050 4241 
L 169 4241 
L 169 4691 
L 2375 4691 
L 2375 4241 
L 1544 4241 
L 1544 3091 
L 2369 3091 
L 2369 2641 
L 1544 2641 
L 1544 1297 
Q 1922 1400 2331 1516 
Q 2313 1284 2325 1084 
Q 1081 691 175 391 
L 94 922 
z
M 4856 2909 
Q 5813 1628 6313 834 
L 5888 509 
Q 5225 1622 4469 2653 
L 4856 2909 
z
" transform="scale(0.015625)"/>
      <path id="MicrosoftYaHei-8f83" d="M 694 2234 
L 1438 2234 
L 1438 3603 
L 1875 3603 
L 1875 2234 
L 2513 2234 
L 2513 1828 
L 1875 1828 
L 1875 981 
Q 2288 1031 2688 1084 
Q 2656 847 2644 653 
Q 2294 613 1875 559 
L 1875 -841 
L 1438 -841 
L 1438 506 
Q 844 428 131 334 
L 81 791 
Q 778 856 1438 928 
L 1438 1828 
L 238 1828 
L 238 2222 
Q 575 3156 816 3928 
L 156 3928 
L 156 4347 
L 941 4347 
Q 1103 4891 1206 5347 
L 1688 5247 
Q 1559 4831 1403 4347 
L 2494 4347 
L 2494 3928 
L 1269 3928 
Q 1016 3156 694 2234 
z
M 5525 2341 
Q 5200 1303 4694 644 
Q 5306 69 6331 -247 
Q 6094 -522 5944 -728 
Q 4972 -334 4353 256 
Q 3641 -450 2563 -828 
Q 2481 -666 2263 -384 
Q 3341 -22 4025 619 
Q 3531 1247 3219 2203 
L 3644 2397 
Q 3909 1572 4363 1003 
Q 4813 1622 5063 2497 
L 5525 2341 
z
M 2719 4366 
L 4316 4366 
Q 4109 4728 3806 5116 
L 4188 5359 
Q 4538 4966 4788 4578 
L 4459 4366 
L 6225 4366 
L 6225 3928 
L 2719 3928 
L 2719 4366 
z
M 4663 3422 
L 5006 3722 
Q 5669 3103 6256 2434 
L 5881 2097 
Q 5344 2747 4663 3422 
z
M 3600 3741 
L 4013 3484 
Q 3456 2628 2925 1997 
Q 2706 2191 2544 2297 
Q 3106 2922 3600 3741 
z
" transform="scale(0.015625)"/>
      <path id="MicrosoftYaHei-591a" d="M 3719 2803 
L 4338 2803 
Q 4050 2522 3744 2272 
L 6019 2272 
L 6019 1816 
Q 4006 -366 650 -891 
Q 538 -666 369 -422 
Q 1894 -203 3100 322 
Q 2919 559 2581 903 
L 2956 1178 
Q 3275 847 3538 522 
Q 4588 1059 5344 1834 
L 3200 1834 
Q 2100 1009 881 484 
Q 769 666 581 909 
Q 2319 1609 3719 2803 
z
M 2775 5316 
L 3406 5316 
Q 3088 4972 2756 4672 
L 5700 4672 
L 5700 4247 
Q 3550 2516 481 1666 
Q 350 1916 194 2103 
Q 1481 2441 2506 2872 
Q 2281 3122 1913 3484 
L 2263 3759 
Q 2631 3403 2944 3066 
Q 4088 3584 4950 4234 
L 2256 4234 
Q 1606 3678 713 3172 
Q 575 3359 369 3566 
Q 1800 4328 2775 5316 
z
" transform="scale(0.015625)"/>
     </defs>
     <use xlink:href="#MicrosoftYaHei-5b"/>
     <use xlink:href="#MicrosoftYaHei-4eba" transform="translate(33.398438 0)"/>
     <use xlink:href="#MicrosoftYaHei-5de5" transform="translate(133.398438 0)"/>
     <use xlink:href="#MicrosoftYaHei-73af" transform="translate(233.398438 0)"/>
     <use xlink:href="#MicrosoftYaHei-8282" transform="translate(333.398438 0)"/>
     <use xlink:href="#MicrosoftYaHei-8f83" transform="translate(433.398438 0)"/>
     <use xlink:href="#MicrosoftYaHei-591a" transform="translate(533.398438 0)"/>
     <use xlink:href="#MicrosoftYaHei-5d" transform="translate(633.398438 0)"/>
    </g>
   </g>
   <g id="text_14">
    <!-- 端到端流程耗时堆叠柱状图 -->
    <g transform="translate(336.497813 16.7925) scale(0.12 -0.12)">
     <defs>
      <path id="MicrosoftYaHei-7aef" d="M 2263 2953 
L 6306 2953 
L 6306 2547 
L 4431 2547 
L 4259 1866 
L 6013 1866 
L 6013 -209 
Q 6013 -747 5538 -747 
Q 5375 -747 5081 -741 
Q 5038 -484 4956 -278 
Q 5169 -297 5388 -297 
Q 5575 -297 5575 -103 
L 5575 1478 
L 4931 1478 
L 4931 -484 
L 4513 -484 
L 4513 1478 
L 3894 1478 
L 3894 -447 
L 3475 -447 
L 3475 1478 
L 2850 1478 
L 2850 -803 
L 2413 -803 
L 2413 1866 
L 3806 1866 
L 3950 2547 
L 2263 2547 
L 2263 2953 
z
M 5406 3359 
L 5406 3553 
L 2581 3553 
L 2581 4959 
L 3019 4959 
L 3019 3941 
L 3988 3941 
L 3988 5353 
L 4438 5353 
L 4438 3941 
L 5406 3941 
L 5406 4959 
L 5844 4959 
L 5844 3359 
L 5406 3359 
z
M 2088 3178 
Q 1969 2256 1644 584 
Q 1966 653 2238 722 
Q 2231 478 2244 278 
Q 1538 103 181 -172 
L 88 297 
Q 716 400 1231 500 
Q 1538 2378 1644 3259 
L 2088 3178 
z
M 238 3091 
L 663 3184 
Q 869 2291 1075 991 
L 644 878 
Q 475 2128 238 3091 
z
M 156 4072 
L 2300 4072 
L 2300 3666 
L 156 3666 
L 156 4072 
z
M 669 5091 
L 1050 5316 
Q 1419 4859 1681 4378 
L 1269 4128 
Q 1044 4566 669 5091 
z
" transform="scale(0.015625)"/>
      <path id="MicrosoftYaHei-5230" d="M 2856 4122 
Q 3356 3384 3794 2584 
Q 3556 2472 3313 2334 
Q 3203 2566 3088 2791 
Q 1741 2659 531 2534 
L 306 3053 
Q 669 3247 931 3672 
Q 1172 4034 1403 4484 
L 238 4484 
L 238 4947 
L 3825 4947 
L 3825 4484 
L 1994 4484 
Q 1528 3694 1050 3047 
Q 1941 3113 2863 3209 
Q 2656 3569 2431 3909 
L 2856 4122 
z
M 281 1734 
L 1750 1734 
L 1750 2509 
L 2250 2509 
L 2250 1734 
L 3681 1734 
L 3681 1272 
L 2250 1272 
L 2250 172 
Q 2988 266 3769 372 
Q 3769 153 3794 -116 
Q 2025 -334 238 -597 
L 94 -72 
Q 891 9 1750 113 
L 1750 1272 
L 281 1272 
L 281 1734 
z
M 5519 5322 
L 6038 5322 
L 6038 34 
Q 6038 -747 5281 -747 
Q 5025 -747 4369 -741 
Q 4331 -484 4275 -178 
Q 4825 -228 5125 -228 
Q 5519 -234 5519 178 
L 5519 5322 
z
M 4163 4647 
L 4669 4647 
L 4669 666 
L 4163 666 
L 4163 4647 
z
" transform="scale(0.015625)"/>
      <path id="MicrosoftYaHei-6d41" d="M 5013 3741 
Q 5500 3178 6094 2372 
Q 5863 2228 5644 2078 
Q 5488 2306 5341 2516 
Q 3806 2447 2519 2378 
Q 2319 2372 2019 2303 
L 1806 2772 
Q 2038 2891 2244 3059 
Q 2728 3472 3206 4078 
L 1819 4078 
L 1819 4522 
L 3803 4522 
Q 3566 4891 3350 5166 
L 3763 5422 
Q 3994 5128 4288 4734 
L 3963 4522 
L 6088 4522 
L 6088 4078 
L 3325 4078 
L 3738 3903 
Q 3156 3278 2650 2853 
Q 3659 2884 5041 2934 
Q 4822 3228 4625 3478 
L 5013 3741 
z
M 4681 2109 
L 5150 2109 
L 5150 16 
Q 5150 -272 5375 -272 
L 5594 -272 
Q 5788 -272 5838 47 
Q 5881 384 5894 834 
Q 6113 734 6363 653 
Q 6319 128 6269 -153 
Q 6194 -709 5675 -709 
L 5288 -709 
Q 4681 -709 4681 22 
L 4681 2109 
z
M 2306 2084 
L 2781 2084 
Q 2781 716 2525 166 
Q 2269 -441 1488 -866 
Q 1344 -634 1169 -453 
Q 1881 -78 2075 409 
Q 2306 884 2306 2084 
z
M 275 -616 
Q 650 484 925 1809 
Q 1200 1691 1431 1616 
Q 1150 534 825 -784 
L 275 -616 
z
M 3538 2084 
L 4006 2084 
L 4006 -703 
L 3538 -703 
L 3538 2084 
z
M 81 3247 
L 394 3609 
Q 900 3259 1456 2803 
Q 1231 2541 1094 2397 
Q 444 2978 81 3247 
z
M 325 4878 
L 644 5209 
Q 1100 4847 1663 4347 
L 1294 3978 
Q 775 4503 325 4878 
z
" transform="scale(0.015625)"/>
      <path id="MicrosoftYaHei-7a0b" d="M 2750 5028 
L 5850 5028 
L 5850 2884 
L 5375 2884 
L 5375 3141 
L 3225 3141 
L 3225 2884 
L 2750 2884 
L 2750 5028 
z
M 44 903 
Q 663 1806 994 3041 
L 119 3041 
L 119 3453 
L 1094 3453 
L 1094 4431 
Q 700 4375 288 4328 
Q 238 4541 156 4759 
Q 1219 4847 2300 5097 
L 2438 4659 
Q 2003 4572 1544 4497 
L 1544 3453 
L 2413 3453 
L 2413 3041 
L 1544 3041 
L 1544 2216 
L 1788 2428 
Q 2038 2172 2519 1609 
L 2144 1303 
Q 1781 1766 1544 2050 
L 1544 -841 
L 1094 -841 
L 1094 2153 
Q 763 1078 256 359 
Q 156 628 44 903 
z
M 2250 -84 
L 4038 -84 
L 4038 841 
L 2619 841 
L 2619 1259 
L 4038 1259 
L 4038 2109 
L 2469 2109 
L 2469 2528 
L 6113 2528 
L 6113 2109 
L 4538 2109 
L 4538 1259 
L 5956 1259 
L 5956 841 
L 4538 841 
L 4538 -84 
L 6325 -84 
L 6325 -503 
L 2250 -503 
L 2250 -84 
z
M 5375 4603 
L 3225 4603 
L 3225 3566 
L 5375 3566 
L 5375 4603 
z
" transform="scale(0.015625)"/>
      <path id="MicrosoftYaHei-5806" d="M 1963 2691 
Q 2700 3716 3288 5278 
L 3744 5134 
Q 3528 4591 3300 4097 
L 6206 4097 
L 6206 3672 
L 4863 3672 
L 4863 2728 
L 6088 2728 
L 6088 2328 
L 4863 2328 
L 4863 1384 
L 6081 1384 
L 6081 984 
L 4863 984 
L 4863 34 
L 6275 34 
L 6275 -366 
L 3250 -366 
L 3250 -828 
L 2775 -828 
L 2775 3066 
Q 2547 2659 2306 2291 
Q 2181 2472 1963 2691 
z
M 81 478 
Q 519 588 1006 722 
L 1006 3316 
L 169 3316 
L 169 3759 
L 1006 3759 
L 1006 5259 
L 1469 5259 
L 1469 3759 
L 2275 3759 
L 2275 3316 
L 1469 3316 
L 1469 850 
Q 1919 978 2413 1128 
Q 2425 841 2444 634 
Q 1313 316 250 -16 
L 81 478 
z
M 3250 34 
L 4388 34 
L 4388 984 
L 3250 984 
L 3250 34 
z
M 3250 1384 
L 4388 1384 
L 4388 2328 
L 3250 2328 
L 3250 1384 
z
M 3250 2728 
L 4388 2728 
L 4388 3672 
L 3250 3672 
L 3250 2728 
z
M 4156 5097 
L 4544 5303 
Q 4900 4772 5138 4353 
L 4706 4116 
Q 4450 4616 4156 5097 
z
" transform="scale(0.015625)"/>
      <path id="MicrosoftYaHei-53e0" d="M 131 -309 
L 1188 -309 
L 1188 1534 
L 5206 1534 
L 5206 -309 
L 6263 -309 
L 6263 -622 
L 131 -622 
L 131 -309 
z
M 969 4416 
L 1094 4691 
Q 2100 4581 3375 4397 
Q 3972 4563 4538 4791 
L 869 4791 
L 869 5103 
L 5294 5103 
L 5294 4753 
Q 4709 4491 4063 4288 
Q 4819 4159 5638 3997 
L 5513 3653 
Q 4453 3919 3406 4100 
Q 2166 3784 713 3672 
Q 644 3841 550 3984 
Q 1634 4016 2638 4219 
Q 1828 4334 969 4416 
z
M 3288 2934 
L 3413 3209 
Q 4078 3072 4681 2916 
Q 5097 3078 5425 3297 
L 3350 3297 
L 3350 3584 
L 5956 3584 
L 5956 3284 
Q 5591 3006 5144 2794 
Q 5675 2644 6188 2484 
L 6025 2184 
Q 5372 2422 4719 2609 
Q 4094 2372 3338 2241 
Q 3256 2391 3150 2547 
Q 3703 2619 4172 2747 
Q 3766 2841 3288 2934 
z
M 375 2172 
L 6025 2172 
L 6025 1334 
L 5588 1334 
L 5588 1859 
L 813 1859 
L 813 1334 
L 375 1334 
L 375 2172 
z
M 363 2966 
L 494 3234 
Q 1094 3091 1775 2913 
Q 2166 3075 2506 3297 
L 338 3297 
L 338 3584 
L 2988 3584 
L 2988 3284 
Q 2625 3003 2209 2791 
Q 2597 2675 2975 2559 
L 2850 2247 
Q 2341 2438 1791 2600 
Q 1134 2331 356 2209 
Q 281 2359 175 2509 
Q 772 2581 1288 2741 
Q 809 2863 363 2966 
z
M 1600 297 
L 4794 297 
L 4794 622 
L 1600 622 
L 1600 297 
z
M 4794 1234 
L 1600 1234 
L 1600 909 
L 4794 909 
L 4794 1234 
z
M 1600 -309 
L 4794 -309 
L 4794 9 
L 1600 9 
L 1600 -309 
z
" transform="scale(0.015625)"/>
      <path id="MicrosoftYaHei-67f1" d="M 2188 -16 
L 3988 -16 
L 3988 1809 
L 2588 1809 
L 2588 2259 
L 3988 2259 
L 3988 3747 
L 2400 3747 
L 2400 4197 
L 6119 4197 
L 6119 3747 
L 4500 3747 
L 4500 2259 
L 5919 2259 
L 5919 1809 
L 4500 1809 
L 4500 -16 
L 6319 -16 
L 6319 -466 
L 2188 -466 
L 2188 -16 
z
M 63 1403 
Q 641 2338 947 3584 
L 156 3584 
L 156 4016 
L 981 4016 
L 981 5291 
L 1463 5291 
L 1463 4016 
L 2213 4016 
L 2213 3584 
L 1463 3584 
L 1463 2503 
L 1669 2697 
Q 2019 2366 2375 1978 
L 2025 1666 
Q 1750 2009 1463 2316 
L 1463 -816 
L 981 -816 
L 981 2450 
Q 678 1478 263 853 
Q 175 1122 63 1403 
z
M 3631 5116 
L 4044 5372 
Q 4381 4972 4644 4572 
L 4206 4284 
Q 3981 4672 3631 5116 
z
" transform="scale(0.015625)"/>
      <path id="MicrosoftYaHei-72b6" d="M 2213 3516 
L 3791 3516 
Q 3825 4369 3825 5297 
L 4325 5297 
Q 4325 4338 4294 3516 
L 6175 3516 
L 6175 3047 
L 4309 3047 
Q 4884 628 6313 -228 
Q 6069 -491 5906 -703 
Q 4638 266 4119 2106 
Q 3766 413 2363 -809 
Q 2169 -541 2013 -384 
Q 3600 853 3766 3047 
L 2213 3047 
L 2213 3516 
z
M 1494 5316 
L 1994 5316 
L 1994 -834 
L 1494 -834 
L 1494 1606 
Q 916 1119 400 691 
L 75 1122 
Q 769 1628 1494 2222 
L 1494 5316 
z
M 219 4134 
L 644 4334 
Q 1019 3672 1306 2884 
L 831 2666 
Q 519 3541 219 4134 
z
M 5006 5053 
Q 5550 4641 5950 4278 
Q 5775 4078 5606 3884 
Q 5150 4328 4681 4716 
L 5006 5053 
z
" transform="scale(0.015625)"/>
      <path id="MicrosoftYaHei-56fe" d="M 431 5072 
L 5944 5072 
L 5944 -809 
L 5475 -809 
L 5475 -509 
L 900 -509 
L 900 -809 
L 431 -809 
L 431 5072 
z
M 5475 4622 
L 900 4622 
L 900 -59 
L 5475 -59 
L 5475 4622 
z
M 1113 3091 
Q 1969 3709 2519 4547 
L 2931 4353 
Q 2816 4181 2681 4016 
L 4894 4016 
L 4894 3647 
Q 4434 3091 3722 2644 
Q 4381 2422 5338 2297 
Q 5194 2016 5131 1828 
Q 4022 2081 3256 2400 
Q 2491 2056 1225 1728 
Q 1138 1934 1013 2128 
Q 2109 2353 2825 2644 
Q 2384 2947 2066 3341 
Q 1769 3056 1419 2784 
Q 1294 2916 1113 3091 
z
M 1563 672 
L 1694 1103 
Q 3256 897 4700 622 
L 4531 147 
Q 3150 453 1563 672 
z
M 4275 3628 
L 2347 3628 
Q 2338 3616 2328 3606 
Q 2691 3141 3244 2841 
Q 3891 3188 4275 3628 
z
M 2219 1503 
L 2344 1922 
Q 3263 1784 4275 1609 
L 4144 1172 
Q 3119 1378 2219 1503 
z
" transform="scale(0.015625)"/>
     </defs>
     <use xlink:href="#MicrosoftYaHei-7aef"/>
     <use xlink:href="#MicrosoftYaHei-5230" transform="translate(100 0)"/>
     <use xlink:href="#MicrosoftYaHei-7aef" transform="translate(200 0)"/>
     <use xlink:href="#MicrosoftYaHei-6d41" transform="translate(300 0)"/>
     <use xlink:href="#MicrosoftYaHei-7a0b" transform="translate(400 0)"/>
     <use xlink:href="#MicrosoftYaHei-8017" transform="translate(500 0)"/>
     <use xlink:href="#MicrosoftYaHei-65f6" transform="translate(600 0)"/>
     <use xlink:href="#MicrosoftYaHei-5806" transform="translate(700 0)"/>
     <use xlink:href="#MicrosoftYaHei-53e0" transform="translate(800 0)"/>
     <use xlink:href="#MicrosoftYaHei-67f1" transform="translate(900 0)"/>
     <use xlink:href="#MicrosoftYaHei-72b6" transform="translate(1000 0)"/>
     <use xlink:href="#MicrosoftYaHei-56fe" transform="translate(1100 0)"/>
    </g>
   </g>
   <g id="legend_1">
    <g id="patch_15">
     <path d="M 667.587812 100.71125 
L 769.587812 100.71125 
Q 771.587812 100.71125 771.587812 98.71125 
L 771.587812 37.7925 
Q 771.587812 35.7925 769.587812 35.7925 
L 667.587812 35.7925 
Q 665.587812 35.7925 665.587812 37.7925 
L 665.587812 98.71125 
Q 665.587812 100.71125 667.587812 100.71125 
z
" style="fill: #ffffff; opacity: 0.8; stroke: #cccccc; stroke-linejoin: miter"/>
    </g>
    <g id="patch_16">
     <path d="M 669.587812 47.78625 
L 689.587812 47.78625 
L 689.587812 40.78625 
L 669.587812 40.78625 
z
" style="fill: #4c78a8"/>
    </g>
    <g id="text_15">
     <!-- 数据准备 -->
     <g transform="translate(697.587812 47.78625) scale(0.1 -0.1)">
      <defs>
       <path id="MicrosoftYaHei-6570" d="M 4175 5303 
L 4675 5228 
Q 4544 4622 4369 4097 
L 6281 4097 
L 6281 3672 
L 5888 3672 
Q 5731 1834 5088 753 
Q 5594 66 6375 -372 
Q 6175 -647 6038 -866 
Q 5275 -372 4769 309 
Q 4194 -403 3400 -928 
Q 3263 -747 3044 -534 
Q 3919 41 4463 772 
Q 3956 1647 3794 2791 
Q 3663 2559 3519 2359 
Q 3394 2541 3206 2759 
Q 3931 3803 4175 5303 
z
M 150 1697 
L 1100 1697 
Q 1238 1934 1369 2184 
L 1819 2041 
Q 1719 1866 1619 1697 
L 3150 1697 
L 3150 1291 
Q 2913 678 2431 216 
Q 2775 53 3131 -109 
L 2856 -541 
Q 2469 -322 2050 -103 
Q 1344 -609 269 -903 
Q 169 -703 56 -466 
Q 969 -259 1600 128 
Q 1063 403 475 691 
Q 675 978 863 1284 
L 150 1284 
L 150 1697 
z
M 219 3847 
L 1656 3847 
L 1656 5247 
L 2119 5247 
L 2119 3847 
L 3319 3847 
L 3319 3434 
L 2119 3434 
L 2119 3053 
L 2306 3266 
Q 2888 2841 3281 2516 
L 2981 2166 
Q 2638 2491 2119 2897 
L 2119 2184 
L 1656 2184 
L 1656 3059 
Q 1088 2466 331 2016 
Q 213 2197 63 2397 
Q 850 2822 1506 3434 
L 219 3434 
L 219 3847 
z
M 5388 3672 
L 4219 3672 
Q 4188 3591 4150 3516 
Q 4263 2191 4775 1247 
Q 5275 2159 5388 3672 
z
M 1088 834 
Q 1531 634 2000 416 
Q 2431 784 2675 1284 
L 1375 1284 
Q 1231 1053 1088 834 
z
M 3038 5091 
L 3425 4834 
Q 3081 4384 2738 4003 
Q 2594 4128 2400 4266 
Q 2725 4647 3038 5091 
z
M 381 4816 
L 738 5059 
Q 1019 4716 1319 4322 
L 931 4047 
Q 656 4453 381 4816 
z
" transform="scale(0.015625)"/>
       <path id="MicrosoftYaHei-636e" d="M 2900 1334 
L 4188 1334 
L 4188 2128 
L 2731 2128 
Q 2663 206 1844 -841 
Q 1694 -647 1506 -447 
Q 2288 516 2288 2509 
L 2288 4947 
L 5975 4947 
L 5975 3134 
L 5525 3134 
L 5525 3328 
L 2738 3328 
L 2738 2553 
L 4188 2553 
L 4188 3209 
L 4638 3209 
L 4638 2553 
L 6288 2553 
L 6288 2128 
L 4638 2128 
L 4638 1334 
L 5938 1334 
L 5938 -778 
L 5488 -778 
L 5488 -416 
L 3350 -416 
L 3350 -778 
L 2900 -778 
L 2900 1334 
z
M 100 1966 
Q 544 2088 963 2213 
L 963 3641 
L 175 3641 
L 175 4091 
L 963 4091 
L 963 5284 
L 1425 5284 
L 1425 4091 
L 2106 4091 
L 2106 3641 
L 1425 3641 
L 1425 2356 
Q 1722 2450 2006 2547 
Q 2013 2266 2044 2059 
Q 1722 1956 1425 1856 
L 1425 -34 
Q 1425 -741 806 -753 
Q 613 -759 231 -747 
Q 206 -497 156 -228 
Q 500 -266 681 -266 
Q 963 -266 963 53 
L 963 1703 
Q 534 1559 163 1428 
L 100 1966 
z
M 5525 4534 
L 2738 4534 
L 2738 3741 
L 5525 3741 
L 5525 4534 
z
M 5488 922 
L 3350 922 
L 3350 -9 
L 5488 -9 
L 5488 922 
z
" transform="scale(0.015625)"/>
       <path id="MicrosoftYaHei-51c6" d="M 1413 2766 
Q 2313 3866 2869 5334 
L 3331 5172 
Q 3128 4694 2906 4253 
L 6194 4253 
L 6194 3822 
L 4675 3822 
L 4675 2891 
L 6025 2891 
L 6025 2459 
L 4675 2459 
L 4675 1528 
L 6038 1528 
L 6038 1097 
L 4675 1097 
L 4675 78 
L 6275 78 
L 6275 -341 
L 2769 -341 
L 2769 -841 
L 2281 -841 
L 2281 3131 
Q 2034 2738 1769 2384 
Q 1631 2578 1413 2766 
z
M 2769 78 
L 4188 78 
L 4188 1097 
L 2769 1097 
L 2769 78 
z
M 1081 2422 
Q 1325 2291 1556 2209 
Q 1113 916 681 -372 
L 169 -141 
Q 650 1003 1081 2422 
z
M 2769 1528 
L 4188 1528 
L 4188 2459 
L 2769 2459 
L 2769 1528 
z
M 2769 2891 
L 4188 2891 
L 4188 3822 
L 2769 3822 
L 2769 2891 
z
M 531 4991 
Q 1050 4384 1581 3709 
Q 1538 3678 1150 3341 
Q 681 3997 138 4672 
L 531 4991 
z
M 3919 5116 
L 4325 5372 
Q 4569 5072 4881 4622 
L 4450 4334 
Q 4156 4784 3919 5116 
z
" transform="scale(0.015625)"/>
       <path id="MicrosoftYaHei-5907" d="M 975 2097 
L 5425 2097 
L 5425 -816 
L 4975 -816 
L 4975 -541 
L 1425 -541 
L 1425 -816 
L 975 -816 
L 975 2097 
z
M 1869 5403 
L 2338 5203 
Q 2200 4975 2041 4753 
L 5425 4753 
L 5425 4334 
Q 4847 3638 3869 3119 
Q 4903 2772 6338 2697 
Q 6131 2403 5988 2172 
Q 4372 2366 3278 2838 
Q 2038 2306 281 2003 
Q 169 2222 19 2453 
Q 1569 2678 2719 3119 
Q 1981 3547 1559 4138 
Q 1094 3603 506 3109 
Q 338 3297 163 3453 
Q 1281 4353 1869 5403 
z
M 4756 4341 
L 1953 4341 
Q 2456 3741 3275 3353 
Q 4156 3772 4756 4341 
z
M 1425 953 
L 2975 953 
L 2975 1722 
L 1425 1722 
L 1425 953 
z
M 4975 1722 
L 3425 1722 
L 3425 953 
L 4975 953 
L 4975 1722 
z
M 3425 -166 
L 4975 -166 
L 4975 597 
L 3425 597 
L 3425 -166 
z
M 1425 -166 
L 2975 -166 
L 2975 597 
L 1425 597 
L 1425 -166 
z
" transform="scale(0.015625)"/>
      </defs>
      <use xlink:href="#MicrosoftYaHei-6570"/>
      <use xlink:href="#MicrosoftYaHei-636e" transform="translate(100 0)"/>
      <use xlink:href="#MicrosoftYaHei-51c6" transform="translate(200 0)"/>
      <use xlink:href="#MicrosoftYaHei-5907" transform="translate(300 0)"/>
     </g>
    </g>
    <g id="patch_17">
     <path d="M 669.587812 63.265937 
L 689.587812 63.265937 
L 689.587812 56.265937 
L 669.587812 56.265937 
z
" style="fill: #72b7b2"/>
    </g>
    <g id="text_16">
     <!-- 地形采样与掩膜 -->
     <g transform="translate(697.587812 63.265937) scale(0.1 -0.1)">
      <defs>
       <path id="MicrosoftYaHei-5730" d="M 3975 5303 
L 4463 5303 
L 4463 3688 
L 5981 4147 
Q 5944 2916 5906 2134 
Q 5869 1291 5231 1284 
Q 4944 1278 4669 1284 
Q 4631 1516 4575 1803 
Q 4875 1766 5094 1766 
Q 5419 1759 5431 2241 
Q 5469 2809 5475 3534 
L 4463 3219 
L 4463 509 
L 3975 509 
L 3975 3069 
L 3031 2775 
L 3031 353 
Q 3031 -134 3563 -134 
L 5094 -134 
Q 5669 -134 5731 328 
Q 5806 728 5856 1259 
Q 6106 1159 6375 1078 
Q 6288 478 6206 103 
Q 6056 -609 5225 -609 
L 3444 -609 
Q 2544 -609 2544 272 
L 2544 2622 
L 2075 2478 
L 1994 2941 
L 2544 3106 
L 2544 4566 
L 3031 4566 
L 3031 3253 
L 3975 3538 
L 3975 5303 
z
M 44 303 
Q 491 447 944 597 
L 944 3091 
L 138 3091 
L 138 3528 
L 944 3528 
L 944 5272 
L 1406 5272 
L 1406 3528 
L 2131 3528 
L 2131 3091 
L 1406 3091 
L 1406 753 
Q 1803 891 2206 1034 
Q 2219 772 2250 572 
Q 1225 203 219 -178 
L 44 303 
z
" transform="scale(0.015625)"/>
       <path id="MicrosoftYaHei-5f62" d="M 175 2647 
L 1019 2647 
L 1019 4422 
L 350 4422 
L 350 4872 
L 3775 4872 
L 3775 4422 
L 3006 4422 
L 3006 2647 
L 3975 2647 
L 3975 2197 
L 3006 2197 
L 3006 -791 
L 2525 -791 
L 2525 2197 
L 1497 2197 
Q 1500 128 406 -841 
Q 256 -622 75 -428 
Q 1025 366 1016 2197 
L 175 2197 
L 175 2647 
z
M 1500 2647 
L 2525 2647 
L 2525 4422 
L 1500 4422 
L 1500 2647 
z
M 6319 1353 
Q 5331 166 3738 -834 
Q 3631 -666 3388 -422 
Q 4925 397 5956 1672 
L 6319 1353 
z
M 6138 3172 
Q 5250 2159 4019 1347 
Q 3888 1528 3694 1722 
Q 4856 2441 5775 3484 
L 6138 3172 
z
M 6038 4934 
Q 5194 4009 3988 3266 
Q 3875 3428 3675 3666 
Q 4838 4322 5675 5253 
L 6038 4934 
z
" transform="scale(0.015625)"/>
       <path id="MicrosoftYaHei-91c7" d="M 6363 247 
Q 6144 -34 5994 -284 
Q 4353 331 3444 1706 
L 3444 -866 
L 2956 -866 
L 2956 1697 
Q 2041 422 438 -384 
Q 294 -172 81 84 
Q 1678 766 2559 1853 
L 163 1853 
L 163 2328 
L 2956 2328 
L 2956 2878 
L 3444 2878 
L 3444 2328 
L 6231 2328 
L 6231 1853 
L 3831 1853 
Q 4709 684 6363 247 
z
M 619 4478 
Q 581 4728 531 4953 
Q 3969 4991 5800 5116 
L 5875 4641 
Q 3806 4541 619 4478 
z
M 4181 3028 
Q 4738 3647 5381 4478 
L 5819 4153 
Q 5200 3434 4538 2703 
L 4181 3028 
z
M 2563 4178 
L 2975 4422 
Q 3538 3641 3788 3247 
L 3331 2984 
Q 3038 3497 2563 4178 
z
M 694 3928 
L 1063 4197 
Q 1525 3659 1994 3072 
L 1569 2772 
Q 1113 3416 694 3928 
z
" transform="scale(0.015625)"/>
       <path id="MicrosoftYaHei-6837" d="M 2150 1197 
L 3981 1197 
L 3981 2222 
L 2619 2222 
L 2619 2659 
L 3981 2659 
L 3981 3641 
L 2475 3641 
L 2475 4078 
L 4406 4078 
Q 4925 4828 5188 5316 
L 5650 5022 
Q 5325 4578 4931 4078 
L 6075 4078 
L 6075 3641 
L 4469 3641 
L 4469 2659 
L 5900 2659 
L 5900 2222 
L 4469 2222 
L 4469 1197 
L 6275 1197 
L 6275 759 
L 4469 759 
L 4469 -872 
L 3981 -872 
L 3981 759 
L 2150 759 
L 2150 1197 
z
M 94 1384 
Q 700 2316 1038 3603 
L 163 3603 
L 163 4022 
L 1088 4022 
L 1088 5259 
L 1544 5259 
L 1544 4022 
L 2275 4022 
L 2275 3603 
L 1544 3603 
L 1544 2622 
L 1794 2847 
Q 2200 2447 2594 2022 
L 2238 1697 
Q 1756 2247 1544 2472 
L 1544 -872 
L 1088 -872 
L 1088 2559 
Q 750 1547 319 841 
Q 225 1109 94 1384 
z
M 2831 5047 
L 3200 5322 
Q 3694 4766 3906 4466 
L 3481 4172 
Q 3113 4703 2831 5047 
z
" transform="scale(0.015625)"/>
       <path id="MicrosoftYaHei-4e0e" d="M 1163 2384 
L 1163 2859 
L 1413 5328 
L 1931 5328 
L 1834 4334 
L 6269 4334 
L 6269 3859 
L 1791 3859 
L 1694 2859 
L 5813 2859 
Q 5738 1547 5644 416 
Q 5556 -247 5263 -478 
Q 4981 -703 4322 -703 
Q 3706 -697 2900 -678 
Q 2863 -466 2794 -134 
Q 3744 -203 4213 -209 
Q 5050 -266 5125 447 
Q 5206 1278 5263 2384 
L 1163 2384 
z
M 106 1409 
L 4738 1409 
L 4738 934 
L 106 934 
L 106 1409 
z
" transform="scale(0.015625)"/>
       <path id="MicrosoftYaHei-63a9" d="M 1781 2903 
Q 2656 3413 3175 4103 
L 2138 4103 
L 2138 4534 
L 3456 4534 
Q 3663 4903 3781 5316 
L 4256 5203 
Q 4138 4853 3975 4534 
L 6100 4534 
L 6100 4103 
L 4794 4103 
Q 5334 3359 6319 3041 
Q 6138 2791 6013 2584 
Q 5794 2684 5600 2800 
L 5600 534 
L 4169 534 
L 4169 191 
Q 4169 -241 4625 -241 
L 5238 -241 
Q 5713 -241 5775 122 
Q 5838 447 5875 828 
Q 6100 741 6356 666 
Q 6288 228 6219 -72 
Q 6088 -691 5325 -691 
L 4519 -691 
Q 3706 -691 3706 122 
L 3706 534 
L 2775 534 
L 2775 297 
L 2325 297 
L 2325 2700 
Q 2209 2625 2088 2553 
Q 1944 2734 1781 2903 
z
M 100 1966 
Q 547 2088 963 2209 
L 963 3622 
L 150 3622 
L 150 4072 
L 963 4072 
L 963 5284 
L 1425 5284 
L 1425 4072 
L 2100 4072 
L 2100 3622 
L 1425 3622 
L 1425 2353 
Q 1728 2450 2013 2547 
Q 2013 2266 2044 2059 
Q 1722 1956 1425 1856 
L 1425 -91 
Q 1425 -747 819 -753 
Q 619 -753 231 -747 
Q 206 -497 156 -228 
Q 531 -266 713 -266 
Q 963 -266 963 47 
L 963 1703 
Q 534 1559 163 1428 
L 100 1966 
z
M 3706 3516 
L 4169 3516 
L 4169 2822 
L 5566 2822 
Q 4741 3325 4338 4103 
L 3731 4103 
Q 3250 3359 2500 2822 
L 3706 2822 
L 3706 3516 
z
M 5150 928 
L 5150 1491 
L 4169 1491 
L 4169 928 
L 5150 928 
z
M 5150 2428 
L 4169 2428 
L 4169 1872 
L 5150 1872 
L 5150 2428 
z
M 2775 928 
L 3706 928 
L 3706 1491 
L 2775 1491 
L 2775 928 
z
M 2775 1872 
L 3706 1872 
L 3706 2428 
L 2775 2428 
L 2775 1872 
z
" transform="scale(0.015625)"/>
       <path id="MicrosoftYaHei-819c" d="M 2388 991 
L 3953 991 
Q 4000 1219 4013 1541 
L 3156 1541 
L 3156 1403 
L 2713 1403 
L 2713 3753 
L 5881 3753 
L 5881 1403 
L 5438 1403 
L 5438 1541 
L 4450 1541 
Q 4441 1222 4403 991 
L 6175 991 
L 6175 591 
L 4575 591 
Q 5138 -169 6244 -378 
Q 6119 -578 5975 -809 
Q 4816 -519 4238 419 
Q 3844 -447 2531 -872 
Q 2406 -666 2269 -459 
Q 3503 -91 3828 591 
L 2388 591 
L 2388 991 
z
M 506 4941 
L 2144 4941 
L 2144 -66 
Q 2144 -703 1581 -703 
Q 1156 -703 975 -684 
Q 956 -503 900 -234 
Q 1219 -278 1469 -278 
Q 1713 -278 1713 -16 
L 1713 1366 
L 944 1366 
L 944 1253 
Q 944 -116 431 -822 
Q 294 -641 88 -472 
Q 506 172 506 1259 
L 506 4941 
z
M 2413 4753 
L 3331 4753 
L 3331 5291 
L 3769 5291 
L 3769 4753 
L 4725 4753 
L 4725 5291 
L 5163 5291 
L 5163 4753 
L 6175 4753 
L 6175 4353 
L 5163 4353 
L 5163 3891 
L 4725 3891 
L 4725 4353 
L 3769 4353 
L 3769 3891 
L 3331 3891 
L 3331 4353 
L 2413 4353 
L 2413 4753 
z
M 3156 1941 
L 5438 1941 
L 5438 2459 
L 3156 2459 
L 3156 1941 
z
M 5438 3353 
L 3156 3353 
L 3156 2847 
L 5438 2847 
L 5438 3353 
z
M 944 1766 
L 1713 1766 
L 1713 2953 
L 944 2953 
L 944 1766 
z
M 1713 4534 
L 944 4534 
L 944 3353 
L 1713 3353 
L 1713 4534 
z
" transform="scale(0.015625)"/>
      </defs>
      <use xlink:href="#MicrosoftYaHei-5730"/>
      <use xlink:href="#MicrosoftYaHei-5f62" transform="translate(100 0)"/>
      <use xlink:href="#MicrosoftYaHei-91c7" transform="translate(200 0)"/>
      <use xlink:href="#MicrosoftYaHei-6837" transform="translate(300 0)"/>
      <use xlink:href="#MicrosoftYaHei-4e0e" transform="translate(400 0)"/>
      <use xlink:href="#MicrosoftYaHei-63a9" transform="translate(500 0)"/>
      <use xlink:href="#MicrosoftYaHei-819c" transform="translate(600 0)"/>
     </g>
    </g>
    <g id="patch_18">
     <path d="M 669.587812 78.745625 
L 689.587812 78.745625 
L 689.587812 71.745625 
L 669.587812 71.745625 
z
" style="fill: #f58518"/>
    </g>
    <g id="text_17">
     <!-- 可视域计算 -->
     <g transform="translate(697.587812 78.745625) scale(0.1 -0.1)">
      <defs>
       <path id="MicrosoftYaHei-53ef" d="M 813 3409 
L 3569 3409 
L 3569 941 
L 1306 941 
L 1306 497 
L 813 497 
L 813 3409 
z
M 119 4809 
L 6294 4809 
L 6294 4334 
L 5256 4334 
L 5256 103 
Q 5256 -741 4438 -747 
Q 3850 -747 3294 -741 
Q 3263 -453 3194 -172 
Q 3900 -222 4269 -222 
Q 4731 -222 4731 278 
L 4731 4334 
L 119 4334 
L 119 4809 
z
M 3075 2966 
L 1306 2966 
L 1306 1384 
L 3075 1384 
L 3075 2966 
z
" transform="scale(0.015625)"/>
       <path id="MicrosoftYaHei-89c6" d="M 3925 4047 
L 4413 4047 
Q 4413 2291 4325 1841 
L 4719 1841 
L 4719 128 
Q 4719 -241 5063 -241 
L 5400 -241 
Q 5769 -241 5831 84 
Q 5875 428 5900 966 
Q 6119 866 6375 778 
Q 6325 234 6275 -97 
Q 6194 -672 5519 -672 
L 4981 -672 
Q 4238 -672 4238 66 
L 4238 1403 
Q 3813 -191 2138 -903 
Q 2000 -709 1813 -491 
Q 3756 253 3888 2334 
Q 3925 3028 3925 4047 
z
M 2631 4953 
L 5769 4953 
L 5769 1103 
L 5281 1103 
L 5281 4516 
L 3119 4516 
L 3119 1103 
L 2631 1103 
L 2631 4953 
z
M 119 3559 
L 119 4009 
L 2150 4009 
L 2150 3547 
Q 1831 2984 1431 2466 
L 1431 2122 
L 1700 2366 
Q 2144 1966 2525 1584 
L 2163 1266 
Q 1844 1628 1431 2047 
L 1431 -822 
L 956 -822 
L 956 1891 
Q 625 1522 250 1178 
Q 181 1422 81 1716 
Q 1050 2566 1594 3559 
L 119 3559 
z
M 731 5078 
L 1169 5297 
Q 1406 4916 1663 4434 
L 1200 4197 
Q 950 4709 731 5078 
z
" transform="scale(0.015625)"/>
       <path id="MicrosoftYaHei-57df" d="M 3231 -522 
Q 3941 63 4484 841 
Q 4269 1816 4219 3803 
L 2025 3803 
L 2025 4241 
L 4206 4241 
Q 4197 4747 4194 5328 
L 4675 5328 
Q 4669 4759 4675 4241 
L 6219 4241 
L 6219 3803 
L 4684 3803 
Q 4716 2384 4853 1419 
Q 5300 2191 5606 3122 
L 6050 2934 
Q 5572 1691 4981 763 
Q 5113 269 5313 -41 
Q 5481 -309 5600 -309 
Q 5713 -309 5756 -41 
Q 5813 284 5844 934 
Q 6113 828 6313 772 
Q 6225 34 6163 -272 
Q 6056 -822 5656 -828 
Q 5350 -822 5088 -522 
Q 4828 -234 4647 275 
Q 4169 -372 3625 -834 
Q 3450 -684 3231 -522 
z
M 69 441 
Q 478 566 875 697 
L 875 3141 
L 138 3141 
L 138 3578 
L 875 3578 
L 875 5316 
L 1338 5316 
L 1338 3578 
L 2031 3578 
L 2031 3141 
L 1338 3141 
L 1338 853 
Q 1666 966 1988 1084 
Q 1988 1016 2031 622 
Q 1156 303 188 -66 
L 69 441 
z
M 2175 3103 
L 3769 3103 
L 3769 1159 
L 3338 1159 
L 3338 1303 
L 2606 1303 
L 2606 1084 
L 2175 1084 
L 2175 3103 
z
M 1694 353 
Q 2825 528 3981 766 
Q 3975 666 4006 341 
Q 3081 172 1856 -84 
L 1694 353 
z
M 3338 2703 
L 2606 2703 
L 2606 1703 
L 3338 1703 
L 3338 2703 
z
M 5188 5241 
Q 5650 4916 5931 4666 
L 5644 4334 
Q 5363 4603 4919 4953 
L 5188 5241 
z
" transform="scale(0.015625)"/>
       <path id="MicrosoftYaHei-8ba1" d="M 2100 3153 
L 3919 3153 
L 3919 5303 
L 4456 5303 
L 4456 3153 
L 6288 3153 
L 6288 2703 
L 4456 2703 
L 4456 -822 
L 3919 -822 
L 3919 2703 
L 2100 2703 
L 2100 3153 
z
M 2675 903 
Q 2694 578 2719 359 
Q 1719 -266 1069 -728 
L 769 -303 
Q 988 -116 988 266 
L 988 2741 
L 100 2741 
L 100 3191 
L 1488 3191 
L 1488 153 
Q 2031 484 2675 903 
z
M 738 5222 
Q 1419 4522 1725 4184 
L 1288 3816 
Q 894 4334 356 4891 
L 738 5222 
z
" transform="scale(0.015625)"/>
       <path id="MicrosoftYaHei-7b97" d="M 969 3728 
L 2006 3728 
Q 1775 4016 1544 4266 
L 1769 4428 
L 1244 4428 
Q 875 3963 400 3566 
Q 263 3722 88 3884 
Q 856 4484 1300 5347 
L 1831 5347 
Q 1684 5059 1506 4791 
L 3325 4791 
L 3325 4428 
L 1919 4428 
Q 2144 4200 2369 3953 
L 2072 3728 
L 4953 3728 
Q 4716 4003 4425 4266 
L 4641 4428 
L 4019 4428 
Q 3772 4050 3506 3753 
Q 3344 3897 3125 4047 
Q 3656 4603 4000 5347 
L 4538 5347 
Q 4394 5053 4244 4791 
L 6225 4791 
L 6225 4428 
L 4800 4428 
Q 5069 4206 5294 3972 
L 4991 3728 
L 5475 3728 
L 5475 916 
L 5038 916 
L 5038 1122 
L 1406 1122 
L 1406 916 
L 969 916 
L 969 3728 
z
M 150 609 
L 1850 609 
Q 1875 788 1875 1003 
L 2331 1003 
Q 2331 794 2309 609 
L 4356 609 
L 4356 997 
L 4819 997 
L 4819 609 
L 6300 609 
L 6300 222 
L 4819 222 
L 4819 -828 
L 4356 -828 
L 4356 222 
L 2244 222 
Q 2019 -619 763 -884 
Q 644 -691 488 -472 
Q 1525 -297 1756 222 
L 150 222 
L 150 609 
z
M 5038 3378 
L 1406 3378 
L 1406 2959 
L 5038 2959 
L 5038 3378 
z
M 1406 1472 
L 5038 1472 
L 5038 1891 
L 1406 1891 
L 1406 1472 
z
M 1406 2216 
L 5038 2216 
L 5038 2634 
L 1406 2634 
L 1406 2216 
z
" transform="scale(0.015625)"/>
      </defs>
      <use xlink:href="#MicrosoftYaHei-53ef"/>
      <use xlink:href="#MicrosoftYaHei-89c6" transform="translate(100 0)"/>
      <use xlink:href="#MicrosoftYaHei-57df" transform="translate(200 0)"/>
      <use xlink:href="#MicrosoftYaHei-8ba1" transform="translate(300 0)"/>
      <use xlink:href="#MicrosoftYaHei-7b97" transform="translate(400 0)"/>
     </g>
    </g>
    <g id="patch_19">
     <path d="M 669.587812 94.225312 
L 689.587812 94.225312 
L 689.587812 87.225312 
L 669.587812 87.225312 
z
" style="fill: #54a24b"/>
    </g>
    <g id="text_18">
     <!-- 可视化与导出 -->
     <g transform="translate(697.587812 94.225312) scale(0.1 -0.1)">
      <defs>
       <path id="MicrosoftYaHei-5bfc" d="M 1750 2547 
L 5025 2547 
Q 5531 2547 5606 2866 
Q 5681 3128 5744 3559 
Q 5950 3466 6238 3366 
Q 6144 2941 6063 2672 
Q 5900 2109 5144 2109 
L 1650 2109 
Q 819 2109 819 2916 
L 819 5016 
L 5306 5016 
L 5306 3116 
L 4825 3116 
L 4825 3328 
L 1300 3328 
L 1300 2966 
Q 1300 2547 1750 2547 
z
M 94 1472 
L 4456 1472 
L 4456 1928 
L 4963 1928 
L 4963 1472 
L 6313 1472 
L 6313 1028 
L 4963 1028 
L 4963 9 
Q 4963 -734 4150 -734 
Q 3844 -734 3150 -728 
Q 3119 -497 3056 -191 
Q 3631 -234 4006 -234 
Q 4456 -234 4456 153 
L 4456 1028 
L 94 1028 
L 94 1472 
z
M 1300 4584 
L 1300 3759 
L 4825 3759 
L 4825 4584 
L 1300 4584 
z
M 1269 684 
L 1575 1009 
Q 2269 466 2613 153 
L 2250 -216 
Q 1675 334 1269 684 
z
" transform="scale(0.015625)"/>
       <path id="MicrosoftYaHei-51fa" d="M 5100 2172 
L 5100 2403 
L 3456 2403 
L 3456 -47 
L 5288 -47 
L 5288 1734 
L 5813 1734 
L 5813 -747 
L 5288 -747 
L 5288 -522 
L 588 -522 
L 588 1734 
L 1119 1734 
L 1119 -47 
L 2913 -47 
L 2913 2403 
L 756 2403 
L 756 4647 
L 1288 4647 
L 1288 2878 
L 2913 2878 
L 2913 5222 
L 3456 5222 
L 3456 2878 
L 5100 2878 
L 5100 4647 
L 5631 4647 
L 5631 2172 
L 5100 2172 
z
" transform="scale(0.015625)"/>
      </defs>
      <use xlink:href="#MicrosoftYaHei-53ef"/>
      <use xlink:href="#MicrosoftYaHei-89c6" transform="translate(100 0)"/>
      <use xlink:href="#MicrosoftYaHei-5316" transform="translate(200 0)"/>
      <use xlink:href="#MicrosoftYaHei-4e0e" transform="translate(300 0)"/>
      <use xlink:href="#MicrosoftYaHei-5bfc" transform="translate(400 0)"/>
      <use xlink:href="#MicrosoftYaHei-51fa" transform="translate(500 0)"/>
     </g>
    </g>
   </g>
  </g>
 </g>
 <defs>
  <clipPath id="pa63f7405d6">
   <rect x="40.407813" y="30.7925" width="736.18" height="411.72"/>
  </clipPath>
 </defs>
</svg>
